<svg width="32" height="32" viewBox="0 0 32 32" fill="none" xmlns="http://www.w3.org/2000/svg">
<g clip-path="url(#clip0_610_1669)">
<path d="M4 23.5C4 24.325 4.63529 25 5.41176 25H26.5882C27.3647 25 28 24.325 28 23.5C28 22.675 27.3647 22 26.5882 22H5.41176C4.63529 22 4 22.675 4 23.5ZM4 16C4 16.825 4.63529 17.5 5.41176 17.5H26.5882C27.3647 17.5 28 16.825 28 16C28 15.175 27.3647 14.5 26.5882 14.5H5.41176C4.63529 14.5 4 15.175 4 16ZM4 8.5C4 9.325 4.63529 10 5.41176 10H26.5882C27.3647 10 28 9.325 28 8.5C28 7.675 27.3647 7 26.5882 7H5.41176C4.63529 7 4 7.675 4 8.5Z" fill="#96588D"/>
</g>
<defs>
<clipPath id="clip0_610_1669">
<rect width="32" height="32" fill="white"/>
</clipPath>
</defs>
</svg>
