<svg width="34" height="34" viewBox="0 0 34 34" fill="none" xmlns="http://www.w3.org/2000/svg">
<path d="M20.3334 27C20.7754 27 21.1993 26.8244 21.5119 26.5118C21.8245 26.1992 22.0001 25.7753 22.0001 25.3333V22C22.0001 21.5579 21.8245 21.134 21.5119 20.8215C21.1993 20.5089 20.7754 20.3333 20.3334 20.3333C19.8914 20.3333 19.4674 20.5089 19.1549 20.8215C18.8423 21.134 18.6667 21.5579 18.6667 22V25.3333C18.6667 25.7753 18.8423 26.1992 19.1549 26.5118C19.4674 26.8244 19.8914 27 20.3334 27ZM13.6667 27C14.1088 27 14.5327 26.8244 14.8452 26.5118C15.1578 26.1992 15.3334 25.7753 15.3334 25.3333V22C15.3334 21.5579 15.1578 21.134 14.8452 20.8215C14.5327 20.5089 14.1088 20.3333 13.6667 20.3333C13.2247 20.3333 12.8008 20.5089 12.4882 20.8215C12.1757 21.134 12.0001 21.5579 12.0001 22V25.3333C12.0001 25.7753 12.1757 26.1992 12.4882 26.5118C12.8008 26.8244 13.2247 27 13.6667 27ZM28.6667 6.99996H26.3667L23.4834 1.24996C23.3953 1.03839 23.2645 0.847254 23.0992 0.688511C22.9339 0.529767 22.7376 0.406825 22.5226 0.327367C22.3076 0.247909 22.0786 0.213643 21.8498 0.22671C21.621 0.239777 21.3973 0.299897 21.1928 0.403311C20.9882 0.506726 20.8072 0.651213 20.6611 0.827744C20.5149 1.00427 20.4067 1.20905 20.3433 1.42929C20.2798 1.64952 20.2625 1.88047 20.2923 2.10771C20.3222 2.33495 20.3986 2.55359 20.5167 2.74996L22.6334 6.99996H11.3667L13.4834 2.74996C13.6452 2.36147 13.654 1.92617 13.5081 1.53144C13.3622 1.13672 13.0724 0.811792 12.6968 0.621907C12.3213 0.432021 11.8878 0.391233 11.4834 0.507729C11.079 0.624225 10.7337 0.889382 10.5167 1.24996L7.63339 6.99996H5.3334C4.15538 7.01788 3.02152 7.45121 2.13181 8.22352C1.2421 8.99583 0.653684 10.0575 0.470346 11.2213C0.287007 12.3851 0.520522 13.5763 1.1297 14.5847C1.73889 15.5931 2.68461 16.3541 3.80006 16.7333L5.0334 29.1666C5.15776 30.4042 5.73897 31.5511 6.66351 32.3832C7.58806 33.2153 8.78956 33.6729 10.0334 33.6666H24.0001C25.2439 33.6729 26.4454 33.2153 27.3699 32.3832C28.2945 31.5511 28.8757 30.4042 29.0001 29.1666L30.2334 16.7333C31.3513 16.353 32.2985 15.5892 32.9072 14.5774C33.516 13.5656 33.747 12.371 33.5593 11.2052C33.3717 10.0394 32.7775 8.97761 31.882 8.20792C30.9865 7.43823 29.8475 7.01032 28.6667 6.99996ZM25.6501 28.8333C25.6086 29.2458 25.4149 29.6281 25.1067 29.9055C24.7985 30.1828 24.398 30.3354 23.9834 30.3333H10.0167C9.60212 30.3354 9.20162 30.1828 8.89343 29.9055C8.58525 29.6281 8.39152 29.2458 8.35006 28.8333L7.16673 17H26.8334L25.6501 28.8333ZM28.6667 13.6666H5.3334C4.89137 13.6666 4.46744 13.491 4.15488 13.1785C3.84232 12.8659 3.66673 12.442 3.66673 12C3.66673 11.5579 3.84232 11.134 4.15488 10.8215C4.46744 10.5089 4.89137 10.3333 5.3334 10.3333H28.6667C29.1088 10.3333 29.5327 10.5089 29.8452 10.8215C30.1578 11.134 30.3334 11.5579 30.3334 12C30.3334 12.442 30.1578 12.8659 29.8452 13.1785C29.5327 13.491 29.1088 13.6666 28.6667 13.6666Z" fill="#96588D"/>
</svg>
