<svg width="88" height="88" viewBox="0 0 88 88" fill="none" xmlns="http://www.w3.org/2000/svg">
<g clip-path="url(#clip0_171_251)">
<path d="M43.9998 44C39.9665 44 36.6665 40.7 36.6665 36.6667C36.6665 32.6333 39.9665 29.3333 43.9998 29.3333C48.0332 29.3333 51.3332 32.6333 51.3332 36.6667C51.3332 40.7 48.0332 44 43.9998 44ZM65.9998 37.4C65.9998 24.09 56.2832 14.6667 43.9998 14.6667C31.7165 14.6667 21.9998 24.09 21.9998 37.4C21.9998 45.98 29.1498 57.3467 43.9998 70.9133C58.8498 57.3467 65.9998 45.98 65.9998 37.4ZM43.9998 7.33333C59.3998 7.33333 73.3332 19.14 73.3332 37.4C73.3332 49.5733 63.5432 63.9833 43.9998 80.6667C24.4565 63.9833 14.6665 49.5733 14.6665 37.4C14.6665 19.14 28.5998 7.33333 43.9998 7.33333Z" fill="#96588D"/>
</g>
<defs>
<clipPath id="clip0_171_251">
<rect width="88" height="88" fill="white"/>
</clipPath>
</defs>
</svg>
