<svg width="126" height="112" viewBox="0 0 126 112" fill="none" xmlns="http://www.w3.org/2000/svg">
<g clip-path="url(#clip0_820_307)">
<path d="M81.8661 103.402C81.8661 107.746 78.3369 111.268 73.9835 111.268C69.6301 111.268 66.1009 107.746 66.1009 103.402C66.1009 99.057 69.6301 95.5351 73.9835 95.5351C78.3369 95.5351 81.8661 99.057 81.8661 103.402Z" fill="#96588D"/>
<path d="M103.543 24.2448C103.543 28.3178 100.235 31.6197 96.1533 31.6197C92.0719 31.6197 88.7634 28.3178 88.7634 24.2448C88.7634 20.1718 92.0719 16.87 96.1533 16.87C100.235 16.87 103.543 20.1718 103.543 24.2448Z" fill="#96588D"/>
<path d="M77.9248 56.2025C77.9248 64.3486 71.3076 70.9522 63.1449 70.9522C54.9822 70.9522 48.3651 64.3486 48.3651 56.2025C48.3651 48.0565 54.9822 41.4528 63.1449 41.4528C71.3076 41.4528 77.9248 48.0565 77.9248 56.2025Z" fill="#96588D"/>
<path fill-rule="evenodd" clip-rule="evenodd" d="M66.3074 97.2363C67.1782 96.1579 68.2723 95.2668 69.5203 94.633C68.3041 93.5523 67.0723 92.381 65.8317 91.1247C69.1776 87.0855 72.5162 82.5572 75.7482 77.6275C81.4721 77.2153 86.9127 76.5309 91.9551 75.6148C95.698 88.9184 95.2491 99.2286 89.819 102.357C88.1466 103.321 86.1192 103.535 83.8315 103.082C83.8315 105.292 83.106 107.652 81.8724 109.294C86.8837 111.789 91.2595 112.316 94.5003 110.449C101.435 106.453 101.453 92.4843 95.745 74.8668C113.887 70.9909 126 63.9913 126 56.0002C126 47.9437 113.688 40.8951 95.2993 37.0392C95.6616 35.8712 95.9995 34.7192 96.3126 33.585C94.9746 33.585 93.5428 33.3065 92.3915 32.8014C92.1367 33.9446 91.8486 35.1146 91.5278 36.3086C86.5391 35.4191 81.1671 34.7556 75.5218 34.3566C72.17 29.4071 68.7144 24.8698 65.2593 20.8342C74.6674 10.9927 83.6344 6.2044 89.0603 9.21434C91.0935 10.3422 92.4569 12.4692 93.1882 15.3817C94.1202 15.0715 95.117 14.9034 96.1534 14.9034C97.2238 14.9034 98.252 15.0825 99.2099 15.4129C99.2411 8.30304 97.4336 3.16945 93.6087 1.04774C86.6682 -2.80234 74.7938 4.21176 62.6899 17.9252C50.3641 4.41006 38.3771 -2.41048 31.5001 1.5519C24.5654 5.54754 24.5477 19.516 30.2554 37.1334C12.1131 41.0093 -3.50021e-07 48.0089 0 56.0002C3.52877e-07 64.0566 12.3116 71.1052 30.7006 74.9611C25.1433 92.8745 25.335 107.038 32.3911 110.952C39.332 114.802 51.2063 107.788 63.3103 94.0748C64.3124 95.1736 65.3123 96.2282 66.3074 97.2363ZM34.0454 36.3854C30.3026 23.082 30.7516 12.7719 36.1814 9.6436C41.5573 6.546 50.6011 11.1881 60.1682 20.8756C56.8223 24.9148 53.4838 29.4431 50.2518 34.3728C44.5281 34.785 39.0877 35.4693 34.0454 36.3854ZM9.36229 56.0002C9.36228 49.743 18.085 44.1999 31.5013 40.7829C33.2728 45.7254 35.4658 50.9082 38.0561 56.2022C35.621 61.3913 33.56 66.469 31.8933 71.3163C18.2552 67.9079 9.36229 62.318 9.36229 56.0002ZM63 33.9205C60.1151 33.9205 57.2755 33.9884 54.4936 34.12C57.2038 30.2444 59.9769 26.7095 62.736 23.5835C65.5756 26.6972 68.4364 30.2282 71.2377 34.1075C68.5417 33.9841 65.7921 33.9205 63 33.9205ZM46.5359 46.8669C48.3425 43.6235 50.2223 40.5216 52.1465 37.5868C55.6517 37.3343 59.2816 37.2017 63 37.2017C66.6503 37.2017 70.2153 37.3295 73.6608 37.573C75.5949 40.429 77.4883 43.4462 79.3134 46.6009C81.1046 49.6971 82.748 52.784 84.2372 55.8276C82.7977 58.8952 81.2047 62.0085 79.4639 65.1336C77.6574 68.3769 75.7776 71.4788 73.8534 74.4136C70.3483 74.666 66.7183 74.7986 63 74.7986C59.3498 74.7986 55.7848 74.6708 52.3394 74.4273C50.4054 71.5714 48.5121 68.5542 46.687 65.3996C44.8957 62.3032 43.2522 59.2162 41.7629 56.1724C43.2024 53.1049 44.7953 49.9918 46.5359 46.8669ZM35.1215 39.9372C39.0941 39.0885 43.4062 38.4157 47.9697 37.9497C46.5029 40.3123 45.0638 42.7561 43.6622 45.2724C42.3508 47.6268 41.1108 49.9755 39.9439 52.308C38.0121 48.035 36.3985 43.8788 35.1215 39.9372ZM82.1611 44.9603C80.7651 42.5473 79.335 40.2028 77.88 37.9345C82.3542 38.3863 86.5883 39.0368 90.4995 39.8569C89.3046 43.7087 87.7973 47.7642 85.9932 51.9342C84.7886 49.6211 83.5106 47.2929 82.1611 44.9603ZM82.3381 66.7276C83.6495 64.3732 84.8895 62.0245 86.0563 59.6921C87.9882 63.9651 89.6019 68.1214 90.8789 72.0631C86.9062 72.9118 82.594 73.5846 78.0304 74.0506C79.4973 71.6879 80.9365 69.244 82.3381 66.7276ZM94.1066 40.684C107.745 44.0923 116.638 49.6823 116.638 56.0002C116.638 62.2572 107.915 67.8003 94.4992 71.2173C92.7276 66.2747 90.5345 61.0917 87.9442 55.7975C90.3791 50.6086 92.4401 45.5311 94.1066 40.684ZM40.0072 60.0656C41.2119 62.3789 42.4901 64.7073 43.8398 67.0402C45.2358 69.4531 46.6658 71.7976 48.1208 74.0659C43.6464 73.6141 39.4121 72.9636 35.5007 72.1434C36.6957 68.2914 38.203 64.2357 40.0072 60.0656ZM36.9396 102.786C31.4065 99.7163 30.8314 89.2436 34.4725 75.6917C39.4614 76.5813 44.8334 77.2448 50.4789 77.6437C53.8305 82.5931 57.2859 87.1302 60.7408 91.1656C51.3327 101.007 42.3655 105.796 36.9396 102.786ZM54.7624 77.8928C57.4584 78.0162 60.208 78.0798 63 78.0798C65.8848 78.0798 68.7244 78.0119 71.5063 77.8803C68.796 81.7559 66.0229 85.2907 63.2638 88.4167C60.4243 85.303 57.5637 81.7721 54.7624 77.8928Z" fill="#96588D"/>
</g>
<defs>
<clipPath id="clip0_820_307">
<rect width="126" height="112" fill="white"/>
</clipPath>
</defs>
</svg>
