<svg width="269" height="48" viewBox="0 0 269 48" fill="none" xmlns="http://www.w3.org/2000/svg">
<path d="M115.215 10.3918H122.138V30.6804L148.346 0V37.6082H141.423V18.3093L115.215 48V10.3918Z" fill="#96588D"/>
<path fill-rule="evenodd" clip-rule="evenodd" d="M0 44.0412L24.9416 3.46392L44.5037 44.0412H36.1898L30.8102 32.7969L0 44.0412ZM15.1606 32.308L24.9416 17.6415L29.8321 26.9303L15.1606 32.308Z" fill="#96588D"/>
<path fill-rule="evenodd" clip-rule="evenodd" d="M48.4596 44.0412V3.46392L72.6893 17.3196L55.3824 29.1959V44.0412H48.4596ZM55.3824 13.8557L62.7996 17.3196L55.3824 22.268V13.8557Z" fill="#96588D"/>
<path d="M73.1838 38.1031L87.5239 24.2474L77.1397 11.8763L83.0735 8.41237L91.9743 19.299L106.809 4.94845L111.259 9.40206L95.9301 24.2474L108.292 38.5979L102.358 42.5567L91.9743 28.701L77.1397 42.5567L73.1838 38.1031Z" fill="#96588D"/>
<path d="M153.29 45.0309L167.136 3.95876L179.498 21.7732L195.816 7.42268L201.256 42.0619H193.838L190.871 20.2887L179.498 31.1753L169.608 18.8041L160.213 45.0309H153.29Z" fill="#96588D"/>
<path d="M229.936 3.95876L204.222 22.268L229.936 43.5464L233.892 39.0928L216.09 24.7423H232.903V19.7938H218.068L234.881 7.42268L229.936 3.95876Z" fill="#96588D"/>
<path fill-rule="evenodd" clip-rule="evenodd" d="M240.32 4.45361V43.0515L269 21.7732L240.32 4.45361ZM246.254 32.6598V14.3505L260.099 21.7732L246.254 32.6598Z" fill="#96588D"/>
</svg>
