<svg width="88" height="88" viewBox="0 0 88 88" fill="none" xmlns="http://www.w3.org/2000/svg">
<g clip-path="url(#clip0_171_256)">
<path d="M23.98 18.3333C24.2 21.5967 24.75 24.7867 25.63 27.83L21.23 32.23C19.7267 27.83 18.7733 23.1733 18.4433 18.3333H23.98ZM60.1333 62.4067C63.25 63.2867 66.44 63.8367 69.6667 64.0567V69.52C64.8267 69.19 60.17 68.2367 55.7333 66.77L60.1333 62.4067ZM27.5 11H14.6667C12.65 11 11 12.65 11 14.6667C11 49.0967 38.9033 77 73.3333 77C75.35 77 77 75.35 77 73.3333V60.5367C77 58.52 75.35 56.87 73.3333 56.87C68.7867 56.87 64.35 56.1367 60.2433 54.78C59.8767 54.6333 59.4733 54.5967 59.1067 54.5967C58.1533 54.5967 57.2367 54.9633 56.5033 55.66L48.4367 63.7267C38.06 58.41 29.5533 49.94 24.2733 39.5633L32.34 31.4967C33.3667 30.47 33.66 29.04 33.2567 27.7567C31.9 23.65 31.1667 19.25 31.1667 14.6667C31.1667 12.65 29.5167 11 27.5 11Z" fill="#96588D"/>
</g>
<defs>
<clipPath id="clip0_171_256">
<rect width="88" height="88" fill="white"/>
</clipPath>
</defs>
</svg>
