<svg width="48" height="48" viewBox="0 0 48 48" fill="none" xmlns="http://www.w3.org/2000/svg">
<path fill-rule="evenodd" clip-rule="evenodd" d="M24 0C10.7452 0 0 10.7452 0 24C0 37.2548 10.7452 48 24 48C37.2548 48 48 37.2548 48 24C48 10.7452 37.2548 0 24 0ZM31.6661 14.5801C31.6661 14.5801 27.1197 16.5985 25.779 17.2292C22.2817 18.8061 12.1978 23.2843 12.1978 23.2843C9.80803 24.2935 11.2069 25.2395 11.2069 25.2395C11.2069 25.2395 13.247 25.9965 14.9957 26.5641C16.7443 27.1317 17.6769 26.501 17.6769 26.501C17.6769 26.501 21.7571 23.5996 25.8956 20.509C28.81 18.3645 28.1105 20.1306 27.411 20.8875C25.8956 22.5274 23.3892 25.1134 21.2908 27.1948C20.3582 28.0779 20.8245 28.8347 21.2325 29.2132C22.4192 30.2997 25.2141 32.2758 26.483 33.1729C26.8346 33.4215 27.0691 33.5873 27.1197 33.6283C27.411 33.8807 29.0432 35.0159 30.0341 34.7637C31.0249 34.5114 31.1415 33.0606 31.1415 33.0606C31.1415 33.0606 31.8993 27.8887 32.5988 23.1581C32.7283 22.2293 32.8579 21.32 32.9787 20.472C33.2927 18.2682 33.5475 16.4793 33.5896 15.8416C33.7645 13.6971 31.6661 14.5801 31.6661 14.5801Z" fill="#96588D"/>
</svg>
