<svg width="24" height="24" viewBox="0 0 24 24" fill="none" xmlns="http://www.w3.org/2000/svg">
<path d="M15.8331 7.29004L15.4452 6.36832L15.4362 6.3721L15.4273 6.37606L15.8331 7.29004ZM15.8331 7.29004C15.4452 6.36832 15.4456 6.36815 15.446 6.36799L15.4468 6.36766L15.4485 6.36696L15.4521 6.36543L15.4608 6.36189L15.4833 6.35299C15.5004 6.34635 15.5221 6.33823 15.5477 6.32927C15.5984 6.31153 15.6675 6.2894 15.7495 6.26858C15.9003 6.23028 16.154 6.18077 16.4404 6.20772C16.7372 6.23565 17.1578 6.35808 17.4674 6.75155C17.7653 7.13021 17.824 7.58858 17.7921 7.99429C17.7672 8.35664 17.6389 9.25756 17.4929 10.282L17.4793 10.3771C17.4189 10.8012 17.3543 11.2545 17.2898 11.7172L17.2887 11.7253L17.2886 11.7253C17.1138 12.9075 16.9317 14.145 16.7933 15.087L16.6248 16.2344L16.5771 16.5596L16.5645 16.6457L16.5634 16.6536C16.5623 16.6638 16.5609 16.6754 16.5592 16.6883C16.5545 16.7255 16.5473 16.7741 16.5366 16.8311C16.5156 16.942 16.4785 17.0992 16.4119 17.2706C16.2952 17.5713 15.9853 18.1672 15.2638 18.3509L15.017 17.3818L15.2638 18.3509C14.9146 18.4398 14.5866 18.3918 14.3562 18.3337C14.1148 18.2728 13.8916 18.1777 13.7105 18.0873C13.3831 17.9238 13.0903 17.723 12.9369 17.5968C12.9364 17.5965 12.9359 17.5961 12.9354 17.5957C12.9221 17.5861 12.9028 17.5722 12.8765 17.5534C12.8241 17.5161 12.7528 17.4656 12.6642 17.403L12.6311 17.3796C12.0061 16.9377 10.5815 15.9306 9.94095 15.3441L9.93625 15.3398L9.93626 15.3398C9.75389 15.1707 9.46261 14.8353 9.39009 14.3421C9.37781 14.2586 9.37253 14.1762 9.37376 14.0951L9.35834 14.1049C9.34258 14.1146 9.32447 14.1253 9.30402 14.1367C9.26314 14.1596 9.2128 14.1852 9.15311 14.2114C9.03355 14.2637 8.87677 14.3179 8.68454 14.3548C8.2931 14.4299 7.78688 14.4272 7.18912 14.2332C6.7386 14.087 6.25466 13.9177 5.88646 13.7862C5.70165 13.7202 5.54453 13.6632 5.43342 13.6227L5.30333 13.575L5.26831 13.562L5.25905 13.5586L5.25658 13.5577L5.25589 13.5574L5.25569 13.5574L5.25562 13.5573L5.60343 12.6198M15.8331 7.29004L15.4273 6.37607L15.4272 6.37611L15.4269 6.37626L15.4256 6.37681L15.4207 6.37901L15.4014 6.38756L15.3279 6.42023L15.0607 6.5391C14.8367 6.6388 14.5311 6.77506 14.2043 6.92124C13.5598 7.20954 12.8201 7.54233 12.4712 7.70623C11.5974 8.10017 9.90738 8.85367 8.43183 9.51043C7.6925 9.83951 7.00778 10.144 6.50789 10.3661L5.91298 10.6305L5.75004 10.7029L5.70753 10.7218L5.70094 10.7247C5.33935 10.8783 5.01 11.0733 4.76988 11.3435C4.4995 11.6478 4.35392 12.0404 4.41282 12.4594C4.46437 12.8261 4.65499 13.0794 4.76875 13.2061C4.83167 13.2762 4.89161 13.3303 4.93748 13.3683C4.9609 13.3877 4.98196 13.404 4.99964 13.4171C5.0061 13.422 5.01218 13.4264 5.01781 13.4304C5.01991 13.4319 5.02194 13.4334 5.02391 13.4348L5.0342 13.442L5.03886 13.4452L5.04107 13.4467L5.04214 13.4474C5.04267 13.4478 5.0432 13.4481 5.60343 12.6198M5.60343 12.6198L5.0432 13.4481L5.14282 13.5155L5.25558 13.5573L5.60343 12.6198ZM8.83847 13.2505L9.37758 14.0086C9.37758 14.0086 9.37758 14.0086 9.37758 14.0087L8.83847 13.2505ZM8.83847 13.2505L9.37539 14.0445C9.37537 14.0448 9.37536 14.0452 9.37534 14.0456C9.33218 13.9811 9.20601 13.794 8.83847 13.2505ZM1 12C1 5.92487 5.92487 1 12 1C18.0751 1 23 5.92487 23 12C23 18.0751 18.0751 23 12 23C5.92487 23 1 18.0751 1 12Z" stroke="#96588D" stroke-width="2"/>
</svg>
