<svg width="88" height="88" viewBox="0 0 88 88" fill="none" xmlns="http://www.w3.org/2000/svg">
<g clip-path="url(#clip0_171_246)">
<path d="M55.2568 3.70334H33.2568V11.0367H55.2568V3.70334ZM40.5902 51.37H47.9235V29.37H40.5902V51.37ZM70.0335 27.0967L75.2402 21.89C73.6635 20.02 71.9402 18.26 70.0702 16.72L64.8635 21.9267C59.1802 17.38 52.0302 14.6667 44.2568 14.6667C26.0335 14.6667 11.2568 29.4433 11.2568 47.6667C11.2568 65.89 25.9968 80.6667 44.2568 80.6667C62.5168 80.6667 77.2568 65.89 77.2568 47.6667C77.2568 39.93 74.5435 32.78 70.0335 27.0967ZM44.2568 73.37C30.0668 73.37 18.5902 61.8933 18.5902 47.7033C18.5902 33.5133 30.0668 22.0367 44.2568 22.0367C58.4468 22.0367 69.9235 33.5133 69.9235 47.7033C69.9235 61.8933 58.4468 73.37 44.2568 73.37Z" fill="#96588D"/>
</g>
<defs>
<clipPath id="clip0_171_246">
<rect width="88" height="88" fill="white"/>
</clipPath>
</defs>
</svg>
