<svg width="19" height="21" viewBox="0 0 19 21" fill="none" xmlns="http://www.w3.org/2000/svg">
<path d="M12.07 0.0100098H6.07001V2.01001H12.07V0.0100098ZM8.07001 13.01H10.07V7.01001H8.07001V13.01ZM16.1 6.39001L17.52 4.97001C17.09 4.46001 16.62 3.98001 16.11 3.56001L14.69 4.98001C13.14 3.74001 11.19 3.00001 9.07001 3.00001C4.10001 3.00001 0.0700073 7.03001 0.0700073 12C0.0700073 16.97 4.09001 21 9.07001 21C14.05 21 18.07 16.97 18.07 12C18.07 9.89001 17.33 7.94001 16.1 6.39001ZM9.07001 19.01C5.20001 19.01 2.07001 15.88 2.07001 12.01C2.07001 8.14001 5.20001 5.01001 9.07001 5.01001C12.94 5.01001 16.07 8.14001 16.07 12.01C16.07 15.88 12.94 19.01 9.07001 19.01Z" fill="#96588D"/>
</svg>
