<svg width="48" height="48" viewBox="0 0 48 48" fill="none" xmlns="http://www.w3.org/2000/svg">
<g clip-path="url(#clip0_808_219)">
<path fill-rule="evenodd" clip-rule="evenodd" d="M18.2711 37.8328L18.3704 37.7406L20.135 35.7968C20.8141 35.049 21.4924 34.3004 22.1701 33.5512C22.2034 33.5055 22.2483 33.4693 22.3003 33.4465C22.3523 33.4237 22.4094 33.4149 22.4659 33.4212C22.6963 33.4442 22.9266 33.4526 23.1591 33.4547C23.9621 33.4547 24.7652 33.4547 25.5682 33.3981C26.2973 33.3415 27.0242 33.2534 27.747 33.1402C28.5251 33.0058 29.2955 32.8301 30.0547 32.6139C31.7453 32.1631 33.0534 31.1985 33.8754 29.6364C34.3608 28.676 34.6651 27.6357 34.7736 26.5667C34.902 25.5592 34.9789 24.5458 35.0039 23.5305C35.0414 22.2551 34.9536 20.9792 34.7419 19.7206C34.5951 18.8088 34.3309 17.9195 33.9557 17.0745C33.4782 16.0261 32.8019 15.158 31.7601 14.6002C30.1624 13.7447 28.4338 13.3631 26.6523 13.1681C26.1472 13.1136 25.6422 13.0842 25.135 13.0654C24.0965 13.0123 23.0558 13.0179 22.0179 13.0821C21.2715 13.1371 20.5291 13.2365 19.7948 13.3799C18.7148 13.5752 17.67 13.9285 16.6946 14.4283C16.1291 14.7118 15.6161 15.0883 15.1773 15.5417C14.4661 16.3304 13.9444 17.2688 13.6515 18.2864C13.304 19.4715 13.1143 20.6967 13.0872 21.9307C13.0193 23.1646 13.0348 24.4017 13.1337 25.6336C13.1953 26.3667 13.319 27.0934 13.5036 27.8059C13.7781 28.9163 14.3108 29.9474 15.0589 30.8169C15.8666 31.704 16.9105 32.3466 18.0703 32.6705C18.2161 32.7145 18.2817 32.7649 18.2817 32.9284C18.2732 33.331 18.276 33.7336 18.2788 34.1362C18.2802 34.3375 18.2817 34.5388 18.2817 34.7401L18.2711 37.8328ZM16.7922 19.1045C16.7775 18.6453 17.0289 18.3119 17.3332 18.012C17.7346 17.6305 18.1768 17.2938 18.6519 17.0077C18.8686 16.8751 19.1262 16.8246 19.3774 16.8654C19.6286 16.9062 19.8565 17.0357 20.0192 17.2299C20.5941 17.8295 21.1086 18.4833 21.5555 19.182C21.7769 19.4963 21.944 19.845 22.0501 20.2137C22.0924 20.3575 22.0952 20.5101 22.058 20.6554C22.0209 20.8006 21.9451 20.9334 21.8387 21.0398C21.5949 21.2773 21.3351 21.4979 21.061 21.7003C20.923 21.8095 20.8203 21.9566 20.7658 22.1232C20.7113 22.2899 20.7074 22.4687 20.7546 22.6376C20.9239 23.4303 21.3074 24.1624 21.8641 24.7553C22.5405 25.5747 23.4121 26.2139 24.4 26.6152C24.6428 26.7391 24.9209 26.7768 25.1883 26.7222C25.3347 26.6825 25.4648 26.5982 25.5602 26.481C25.6036 26.4263 25.6481 26.372 25.6927 26.3177C25.8 26.1869 25.9078 26.0556 26.0019 25.9149C26.1745 25.6664 26.4382 25.4947 26.7366 25.4363C27.0351 25.378 27.3447 25.4376 27.5995 25.6025C28.3158 26.0148 28.9921 26.4922 29.6198 27.0283C29.6863 27.0849 29.7542 27.1406 29.8221 27.1965C29.9052 27.2648 29.9885 27.3332 30.0699 27.4036C30.2449 27.5361 30.3713 27.7218 30.4297 27.9324C30.4881 28.143 30.4753 28.3668 30.3932 28.5694C30.2627 28.9102 30.0723 29.2254 29.8311 29.5004C29.5313 29.9139 29.1494 30.2621 28.709 30.5237C28.4984 30.6463 28.2618 30.7184 28.0181 30.7341C27.7745 30.7497 27.5305 30.7085 27.3057 30.6138C25.596 29.9308 23.9984 28.9987 22.5657 27.8481C21.1644 26.7035 19.9398 25.3613 18.9309 23.8642C18.082 22.6249 17.4066 21.2769 16.9233 19.8572C16.8718 19.6855 16.8295 19.5112 16.7965 19.3351C16.7871 19.2586 16.7857 19.1813 16.7922 19.1045ZM27.976 18.3527C26.8947 17.4231 25.5188 16.8996 24.0883 16.8733L24.0312 16.873C23.9545 16.8723 23.877 16.8717 23.8009 16.8817C23.7832 16.8812 23.7656 16.8841 23.7491 16.8904C23.7326 16.8966 23.7175 16.9061 23.7047 16.9182C23.692 16.9303 23.6817 16.9448 23.6746 16.9608C23.6676 16.9769 23.6638 16.9942 23.6635 17.0117C23.6544 17.0487 23.6601 17.0877 23.6794 17.1206C23.6987 17.1534 23.7302 17.1775 23.7671 17.1879C23.8104 17.1998 23.8552 17.2054 23.9002 17.2046C24.3619 17.2072 24.8219 17.2607 25.2717 17.364C26.1225 17.5489 26.9188 17.926 27.5987 18.466C28.2786 19.0061 28.8238 19.6945 29.1918 20.4778C29.6288 21.4309 29.8454 22.469 29.8258 23.516C29.8258 23.6272 29.8596 23.7383 29.9906 23.7257C30.1217 23.7131 30.1534 23.6251 30.1534 23.5034C30.1475 22.9858 30.098 22.4696 30.0054 21.9602C29.7755 20.559 29.0573 19.2824 27.976 18.3527ZM28.1677 22.5598C28.1606 21.9773 28.016 21.4045 27.7456 20.8875C27.4751 20.3704 27.0862 19.9234 26.6102 19.5824C26.0547 19.1952 25.4088 18.9548 24.7337 18.8841C24.6677 18.8756 24.6017 18.87 24.5353 18.8642C24.4869 18.8601 24.4382 18.8559 24.3892 18.8506C24.273 18.838 24.2032 18.7898 24.2138 18.6724C24.2244 18.5549 24.2983 18.513 24.4251 18.5214C26.2975 18.6346 27.8909 19.6851 28.3811 21.6414C28.4708 22.0186 28.5155 22.405 28.5143 22.7926V22.8974C28.5143 23.0023 28.4467 23.0714 28.3431 23.0694C28.3201 23.0686 28.2976 23.0632 28.2768 23.0535C28.256 23.0438 28.2374 23.0299 28.2222 23.0129C28.207 22.9958 28.1954 22.9758 28.1882 22.9542C28.181 22.9325 28.1784 22.9096 28.1804 22.8869C28.1664 22.8053 28.1669 22.7223 28.1675 22.6236L28.1677 22.5598ZM26.8272 21.8761C26.6307 20.7921 25.9143 20.2931 24.8873 20.2239C24.8048 20.2176 24.7161 20.2385 24.6971 20.3518C24.678 20.465 24.7605 20.5384 24.9084 20.5384C24.9984 20.5443 25.0881 20.5555 25.1768 20.5719C25.5736 20.6241 25.9351 20.8252 26.1869 21.1339C26.4265 21.4747 26.5556 21.88 26.5567 22.2955C26.561 22.4213 26.6032 22.5052 26.7279 22.5052C26.8526 22.5052 26.878 22.4087 26.878 22.2955C26.868 22.155 26.8511 22.015 26.8272 21.8761Z" fill="#96588D"/>
<path fill-rule="evenodd" clip-rule="evenodd" d="M24 0C10.7452 0 0 10.7452 0 24C0 37.2548 10.7452 48 24 48C37.2548 48 48 37.2548 48 24C48 10.7452 37.2548 0 24 0ZM17.3307 36.0736V34.6834C17.334 34.6645 17.3333 34.6451 17.3287 34.6264C17.3242 34.6077 17.3158 34.5902 17.3041 34.5748C17.2924 34.5595 17.2777 34.5467 17.2608 34.5373C17.2439 34.5278 17.2253 34.5219 17.206 34.5199C16.0485 34.1936 14.9801 33.6123 14.0805 32.8194C13.425 32.2277 12.8793 31.5266 12.4681 30.7477C11.8885 29.6227 11.5028 28.4094 11.3269 27.158C11.109 25.5883 11.0333 24.0023 11.1008 22.4192C11.1156 21.6811 11.1536 20.9515 11.2381 20.2134C11.373 18.8108 11.7295 17.4381 12.2948 16.1456C12.9927 14.5564 14.259 13.2799 15.8493 12.5621C16.9326 12.0703 18.0723 11.7111 19.2432 11.4928C20.3914 11.277 21.554 11.1445 22.7216 11.0965C23.7741 11.0595 24.8279 11.0749 25.8788 11.1426C27.383 11.2056 28.8736 11.4528 30.3167 11.8786C31.3866 12.1846 32.4045 12.6475 33.3366 13.252C34.2447 13.8706 34.9792 14.7083 35.471 15.6864C36.049 16.8287 36.442 18.0543 36.6354 19.318C36.761 20.0683 36.8435 20.8251 36.8826 21.5847C36.9376 22.5262 36.9312 23.4718 36.8953 24.4091C36.8594 25.3464 36.7791 26.2564 36.6628 27.1748C36.5159 28.5532 36.0889 29.8878 35.4076 31.0979C34.5207 32.6287 33.1001 33.7847 31.4135 34.3479C30.2602 34.7487 29.0695 35.0339 27.859 35.1993C26.9735 35.3209 26.0859 35.4089 25.1941 35.4446C24.5116 35.476 23.829 35.4676 23.1464 35.4572C22.7982 35.4572 22.4517 35.4266 22.1054 35.396L21.9904 35.3859C21.9527 35.3788 21.9137 35.383 21.8783 35.3979C21.8429 35.4129 21.8128 35.4379 21.7918 35.4697C21.0141 36.3965 20.2068 37.2982 19.3932 38.1956C19.245 38.3593 19.0734 38.5006 18.8839 38.6149C18.7595 38.6959 18.6177 38.7467 18.4699 38.7633C18.322 38.7799 18.1723 38.7617 18.0329 38.7103C17.8934 38.6588 17.7681 38.5756 17.667 38.4672C17.566 38.3589 17.492 38.2285 17.4511 38.0866C17.3706 37.8343 17.3307 37.5711 17.3328 37.3065C17.3307 36.8914 17.3307 36.4825 17.3307 36.0736Z" fill="#96588D"/>
</g>
<defs>
<clipPath id="clip0_808_219">
<rect width="48" height="48" fill="white"/>
</clipPath>
</defs>
</svg>
