<svg width="24" height="24" viewBox="0 0 24 24" fill="none" xmlns="http://www.w3.org/2000/svg">
<path fill-rule="evenodd" clip-rule="evenodd" d="M5.80707 20.459V21.6638C5.80707 22.0182 5.80707 22.3725 5.80903 22.7323C5.80705 22.9616 5.84414 23.1898 5.91892 23.4083C5.95689 23.5314 6.02557 23.6444 6.1194 23.7383C6.21324 23.8322 6.3296 23.9043 6.45909 23.9489C6.58859 23.9935 6.72759 24.0092 6.86487 23.9949C7.00215 23.9805 7.13386 23.9365 7.24937 23.8663C7.42534 23.7672 7.58467 23.6447 7.72229 23.5028C8.47778 22.7251 9.22739 21.9437 9.94952 21.1404C9.96907 21.1128 9.99702 21.0911 10.0299 21.0782C10.0627 21.0653 10.0989 21.0616 10.134 21.0678L10.2407 21.0765C10.5623 21.103 10.884 21.1295 11.2074 21.1295C11.8412 21.1386 12.475 21.1459 13.1089 21.1186C13.937 21.0877 14.7611 21.0114 15.5833 20.906C16.7074 20.7627 17.8131 20.5155 18.884 20.1682C20.4501 19.6801 21.7692 18.6782 22.5927 17.3515C23.2254 16.3028 23.6219 15.1461 23.7584 13.9515C23.8663 13.1555 23.9408 12.3668 23.9742 11.5545C24.0076 10.7422 24.0135 9.92267 23.9624 9.10674C23.9261 8.44843 23.8495 7.79256 23.7328 7.14231C23.5533 6.04706 23.1884 4.98487 22.6516 3.99486C22.195 3.14723 21.513 2.42116 20.6697 1.88506C19.8042 1.36118 18.859 0.959991 17.8655 0.694772C16.5255 0.325761 15.1414 0.111521 13.7446 0.0569236C12.7687 -0.0017198 11.7903 -0.0150623 10.8129 0.0169447C9.7287 0.0585883 8.64918 0.173378 7.58296 0.360401C6.49572 0.549662 5.43743 0.860884 4.43148 1.28719C2.95475 1.90924 1.77898 3.01556 1.13086 4.39284C0.605992 5.513 0.274883 6.70271 0.149702 7.91827C0.0712095 8.55793 0.0358873 9.19033 0.0221513 9.82999C-0.0404865 11.202 0.0297841 12.5765 0.232119 13.9369C0.395424 15.0215 0.753589 16.073 1.29177 17.048C1.6736 17.723 2.18037 18.3307 2.78902 18.8435C3.62438 19.5307 4.61645 20.0345 5.69129 20.3172C5.70918 20.319 5.72649 20.3241 5.74216 20.3323C5.75782 20.3405 5.7715 20.3516 5.78235 20.3649C5.79321 20.3782 5.801 20.3934 5.80525 20.4095C5.8095 20.4257 5.81012 20.4426 5.80707 20.459ZM6.6803 23.1885L6.77253 23.1085L8.41106 21.4239C9.04162 20.7758 9.67152 20.127 10.3008 19.4777C10.3317 19.4381 10.3734 19.4068 10.4217 19.387C10.47 19.3672 10.523 19.3596 10.5755 19.365C10.7894 19.385 11.0033 19.3923 11.2191 19.3941C11.9648 19.3941 12.7105 19.3941 13.4562 19.345C14.1332 19.296 14.8082 19.2196 15.4793 19.1215C16.2019 19.005 16.9172 18.8527 17.6222 18.6654C19.192 18.2747 20.4067 17.4387 21.1701 16.0849C21.6207 15.2525 21.9034 14.3509 22.004 13.4245C22.1233 12.5513 22.1947 11.673 22.2179 10.7931C22.2527 9.68778 22.1712 8.58193 21.9746 7.49122C21.8383 6.70098 21.593 5.93023 21.2446 5.19787C20.8011 4.28925 20.1732 3.53692 19.2058 3.05354C17.7223 2.31211 16.1171 1.98137 14.4629 1.81237C13.9939 1.76512 13.5249 1.73968 13.0539 1.72332C12.0896 1.67728 11.1232 1.68214 10.1595 1.73786C9.4664 1.7855 8.77704 1.87167 8.09513 1.99591C7.09229 2.1652 6.12214 2.47141 5.21641 2.90452C4.69132 3.15023 4.21494 3.47649 3.80746 3.86947C3.14708 4.553 2.66267 5.36632 2.39067 6.24823C2.068 7.27534 1.89185 8.33714 1.86673 9.40658C1.80359 10.476 1.81802 11.5482 1.9099 12.6158C1.96707 13.2512 2.08194 13.881 2.25331 14.4985C2.50827 15.4608 3.00288 16.3544 3.69757 17.108C4.44757 17.8768 5.41693 18.4337 6.49388 18.7144C6.62928 18.7526 6.69011 18.7962 6.69011 18.938C6.68226 19.2869 6.68488 19.6358 6.68749 19.9847C6.6888 20.1591 6.69011 20.3336 6.69011 20.508L6.6803 23.1885ZM5.80944 6.01042C5.52687 6.27028 5.29335 6.55922 5.30709 6.95719C5.30097 7.02377 5.30229 7.09076 5.31101 7.15709C5.34166 7.30973 5.38096 7.46077 5.42875 7.60958C5.87754 8.83996 6.50467 10.0082 7.29295 11.0823C8.22978 12.3798 9.36693 13.5431 10.6681 14.535C11.9985 15.5322 13.482 16.34 15.0696 16.932C15.2783 17.0141 15.5049 17.0497 15.7311 17.0362C15.9574 17.0226 16.1771 16.9602 16.3726 16.8538C16.7816 16.6271 17.1362 16.3253 17.4146 15.967C17.6386 15.7287 17.8153 15.4555 17.9366 15.1602C18.0128 14.9845 18.0247 14.7906 17.9705 14.6081C17.9162 14.4256 17.7989 14.2646 17.6363 14.1498C17.5608 14.0888 17.4834 14.0295 17.4063 13.9703C17.3431 13.9219 17.2802 13.8736 17.2184 13.8245C16.6356 13.3599 16.0076 12.9462 15.3424 12.5888C15.1058 12.4459 14.8183 12.3942 14.5412 12.4448C14.264 12.4954 14.0192 12.6442 13.8589 12.8596C13.7715 12.9815 13.6714 13.0953 13.5718 13.2087C13.5304 13.2558 13.4891 13.3028 13.4487 13.3502C13.3602 13.4517 13.2393 13.5248 13.1034 13.5592C12.8551 13.6066 12.5968 13.5738 12.3714 13.4665C11.4541 13.1187 10.6448 12.5648 10.0167 11.8546C9.49972 11.3408 9.14359 10.7063 8.98643 10.0192C8.94261 9.87291 8.94622 9.71789 8.99681 9.57346C9.04741 9.42902 9.14275 9.30156 9.27097 9.20693C9.52545 9.03154 9.76672 8.84029 9.9931 8.6345C10.0919 8.54228 10.1622 8.42723 10.1967 8.30131C10.2313 8.17539 10.2287 8.0432 10.1893 7.91851C10.0908 7.59898 9.93565 7.29684 9.73015 7.02443C9.31516 6.41886 8.83736 5.85223 8.30355 5.33259C8.15247 5.16424 7.94085 5.05206 7.70759 5.01667C7.47433 4.98128 7.23511 5.02506 7.03393 5.13996C6.59273 5.38792 6.18212 5.6798 5.80944 6.01042ZM12.082 5.02356C13.4103 5.04631 14.6879 5.50006 15.692 6.30571C16.6961 7.11137 17.363 8.21782 17.5765 9.43217C17.6624 9.87367 17.7084 10.3211 17.7138 10.7696C17.7138 10.875 17.6844 10.9514 17.5627 10.9623C17.4411 10.9732 17.4097 10.8769 17.4097 10.7806C17.4279 9.87316 17.2268 8.97348 16.821 8.14739C16.4792 7.46859 15.973 6.87196 15.3417 6.40391C14.7103 5.93586 13.9709 5.60901 13.1809 5.4488C12.7632 5.35924 12.3361 5.31292 11.9073 5.31069C11.8656 5.31135 11.8239 5.30646 11.7837 5.29615C11.7494 5.2872 11.7203 5.26629 11.7023 5.23781C11.6844 5.20934 11.6791 5.17552 11.6875 5.1435C11.6878 5.12831 11.6913 5.11332 11.6979 5.0994C11.7045 5.08548 11.714 5.07291 11.7258 5.06242C11.7377 5.05193 11.7517 5.04374 11.767 5.03832C11.7824 5.03289 11.7987 5.03035 11.8151 5.03083C11.8858 5.02211 11.9577 5.02269 12.0289 5.02328L12.082 5.02356ZM15.478 8.50247C15.7292 8.9506 15.8634 9.44699 15.87 9.95185L15.8698 10.0071C15.8692 10.0927 15.8688 10.1646 15.8818 10.2353C15.8799 10.255 15.8824 10.2749 15.8891 10.2936C15.8957 10.3124 15.9065 10.3297 15.9206 10.3445C15.9348 10.3593 15.952 10.3713 15.9713 10.3797C15.9906 10.3881 16.0116 10.3928 16.0329 10.3934C16.129 10.3953 16.1918 10.3353 16.1918 10.2444V10.1536C16.193 9.81767 16.1515 9.48282 16.0682 9.1559C15.613 7.46043 14.1334 6.54999 12.3947 6.45186C12.277 6.44459 12.2083 6.48094 12.1985 6.5827C12.1887 6.68447 12.2535 6.72626 12.3614 6.73717C12.4069 6.74176 12.4521 6.7454 12.497 6.749C12.5587 6.75396 12.62 6.75889 12.6812 6.76624C13.3082 6.82753 13.9079 7.0358 14.4238 7.37138C14.8658 7.66695 15.2269 8.05434 15.478 8.50247ZM12.8239 7.92735C13.7776 7.98731 14.4428 8.41982 14.6253 9.35932C14.6474 9.47968 14.6632 9.60098 14.6724 9.72277C14.6724 9.8209 14.6488 9.90449 14.5331 9.90449C14.4173 9.90449 14.378 9.8318 14.3741 9.72277C14.373 9.36263 14.2532 9.01139 14.0307 8.71602C13.7969 8.44851 13.4612 8.2742 13.0927 8.229C13.0103 8.21474 12.9271 8.20503 12.8435 8.19993C12.7061 8.19993 12.6296 8.13633 12.6473 8.0382C12.6649 7.94007 12.7474 7.92189 12.8239 7.92735Z" fill="#96588D"/>
</svg>
