<svg xmlns="http://www.w3.org/2000/svg" width="48" height="48" viewBox="0 0 512 512">
  <path fill="#96588D" d="M224 2a256 256 0 1 0 64 508A256 256 0 0 0 224 2zm41 177c6 2 10 5 12 9 1 2 2 14 2 38l1 39c3 5 6 7 10 5 9-4 29-34 43-64 3-8 7-16 9-17l2-2h69l2 2c3 2 3 3 3 7-2 10-11 26-36 59-16 21-19 26-19 31s3 10 17 23c21 19 36 38 38 46 0 5-2 9-8 11-3 2-7 2-33 2l-30 1-5-3c-7-4-17-13-28-26-9-10-15-15-21-16-3 0-4 0-7 4-4 5-7 12-8 24 0 10-1 11-5 14-3 2-5 2-21 2-19 0-30-2-44-7-29-12-49-30-74-68-12-18-26-43-39-70-14-27-15-32-10-35l31-1c28 0 29 0 32 2l4 5 11 22c10 21 24 43 32 50 4 5 5 5 9 5 8-1 10-11 10-42l-2-25c-3-6-8-10-14-12l-5-2 2-2c3-6 12-9 26-10 10-1 38 0 44 1z"/>
</svg>
