<svg xmlns="http://www.w3.org/2000/svg" width="24" height="24" version="1.0" viewBox="0 0 1600 1600">
  <path fill="#96588D" stroke="#96588D" stroke-width="60" d="M759 64a730 730 0 1 0 74 1459A730 730 0 0 0 757 64zm66 64a666 666 0 1 1-57 1330 666 666 0 0 1 57-1330z"/>
  <path fill="#96588D" stroke="#96588D" stroke-width="30" d="M330 572c-14 2-23 6-31 15a47 47 0 0 0-10 50 1517 1517 0 0 0 149 279c26 37 46 61 73 88a343 343 0 0 0 305 106c15-4 25-10 33-22 6-10 8-16 9-37 0-16 2-32 3-34 1-1 16 8 25 15l26 21c45 37 62 47 94 55 8 2 11 2 88 3 71 0 80 0 87-2 28-6 50-23 56-46 1-7 1-20-1-28-6-26-30-54-107-124l-30-28-6-6 3-5c4-8 11-17 39-52 33-41 39-49 52-70 26-39 42-74 50-107 5-24 2-40-10-53-9-11-21-16-39-18h-134c-44 1-47 1-60 8-8 4-18 14-23 21l-10 28c-13 36-26 69-37 88-16 30-44 64-59 75l-5 3-1-4c-2-7-2-29-1-79 2-67 0-81-9-99-15-31-50-42-130-42-68 0-99 8-125 33-8 7-11 13-13 23-3 19 8 35 27 39 7 1 17 6 19 9l5 11c5 22 5 98 0 104-2 1-19-18-28-30-27-37-43-70-63-127l-10-27c-8-15-28-29-48-34l-76-1-77 1zm142 64c3 2 3 3 10 22a490 490 0 0 0 93 168c22 22 37 29 61 29 42 0 62-28 64-96 0-19-1-60-3-74-2-15-6-28-13-38l-3-7 38-5c28-1 69 3 73 8 1 1 2 18 2 74 0 79 0 81 5 98 5 15 15 29 27 37 9 6 16 7 30 7 12 0 13 0 22-3 11-4 17-7 28-15 32-23 70-79 94-133 7-16 16-43 22-60l3-12h144c4 0 4 0-1 14-6 18-19 41-35 66-11 18-17 25-52 68l-33 43c-19 27-23 49-14 73 7 17 15 26 52 59 27 24 77 73 83 81l3 5-4 1-75 1-70-1-9-2c-17-5-25-11-59-40-39-32-57-43-77-49-10-2-27-2-36 1-21 7-36 25-44 50-2 7-2 11-3 25v16h-30a270 270 0 0 1-174-57 712 712 0 0 1-171-228c-18-35-61-122-61-126a824 824 0 0 1 113 0z"/>
</svg>
