<svg xmlns="http://www.w3.org/2000/svg" width="1600" height="1600" viewBox="0 0 1600 1600" version="1.1"><path d="" stroke="none" fill="#b05494" fill-rule="evenodd"/><path d="M 757 64.089 C 552.956 74.483, 363.576 169.252, 232.367 326.623 C 90.747 496.482, 34.122 720.203, 77.624 938 C 113.736 1118.799, 219.300 1281.158, 370.860 1389 C 494.895 1477.257, 641.719 1524.057, 794.361 1523.990 C 938.393 1523.927, 1078.148 1481.570, 1198 1401.653 C 1266.481 1355.991, 1327.777 1298.086, 1377.614 1231.975 C 1487.568 1086.120, 1538.574 903.606, 1520.414 721 C 1497.187 487.452, 1362.632 279.313, 1158.336 160.914 C 1037.668 90.981, 896.701 56.972, 757 64.089 M 771.500 127.677 C 575.126 134.420, 393.233 225.975, 271.718 379.240 C 141.081 544.010, 96.151 757.517, 148.979 962.500 C 196.415 1146.562, 323.891 1303.912, 494.838 1389.410 C 572.799 1428.402, 651.852 1450.343, 742.500 1458.147 C 762.046 1459.830, 824.782 1459.839, 844.500 1458.163 C 961.982 1448.174, 1066.652 1412.231, 1162 1349.135 C 1216.139 1313.309, 1268.655 1265.743, 1310.095 1215 C 1389.505 1117.761, 1439.631 1000.260, 1454.926 875.500 C 1458.608 845.469, 1459.458 830.041, 1459.445 793.500 C 1459.422 729.349, 1452.930 679.233, 1436.865 619.194 C 1390.673 446.558, 1274.037 297.787, 1116.386 210.419 C 1011.853 152.489, 891.290 123.564, 771.500 127.677 M 330.388 572.051 C 316.160 573.908, 306.911 578.267, 298.504 587.081 C 285.889 600.306, 282.384 618.406, 288.837 637 C 294.599 653.605, 320.643 710.204, 341.523 751.500 C 374.607 816.931, 405.274 869.184, 438.137 916.118 C 464.168 953.297, 483.658 976.846, 510.913 1004.053 C 570.549 1063.584, 632.206 1096.262, 707.469 1108.228 C 718.802 1110.030, 726.233 1110.355, 764.500 1110.726 C 801.639 1111.086, 809.655 1110.910, 815.906 1109.598 C 830.708 1106.489, 841.026 1099.703, 848.919 1087.883 C 855.392 1078.190, 856.840 1072.107, 857.580 1051.500 C 858.161 1035.351, 860.018 1018.649, 861.385 1017.281 C 862.330 1016.336, 876.996 1024.899, 886.288 1031.820 C 891.355 1035.594, 903.065 1045.026, 912.310 1052.780 C 956.952 1090.219, 974.268 1100.485, 1005.911 1108.271 C 1014.221 1110.316, 1017.083 1110.396, 1094 1110.735 C 1164.813 1111.046, 1174.319 1110.906, 1181 1109.445 C 1209.379 1103.240, 1230.714 1085.552, 1236.469 1063.458 C 1238.416 1055.984, 1238.407 1043.367, 1236.450 1035 C 1230.382 1009.066, 1205.618 980.580, 1128.989 911.387 C 1115.520 899.225, 1101.874 886.506, 1098.664 883.122 L 1092.828 876.969 1095.557 872.234 C 1100.495 863.665, 1107.118 854.904, 1135.044 820 C 1167.723 779.155, 1173.479 771.485, 1187.236 750.442 C 1212.919 711.157, 1229.268 675.649, 1236.482 643.487 C 1241.876 619.438, 1238.908 602.719, 1226.916 589.599 C 1217.617 579.424, 1205.588 574.036, 1187.789 572.072 C 1176.802 570.859, 1112.588 570.805, 1053.500 571.958 C 1010.280 572.801, 1006.772 573.290, 993.523 580.321 C 985.997 584.315, 975.489 594.159, 971.287 601.152 C 969.520 604.094, 964.663 616.565, 960.494 628.867 C 948.078 665.509, 934.773 697.579, 923.723 717.500 C 907.473 746.793, 879.954 781.508, 864.801 791.826 L 860.101 795.026 859.052 791.263 C 857.045 784.069, 856.740 762.207, 857.943 712 C 859.551 644.965, 858.373 631.522, 849.278 613.116 C 834.027 582.251, 798.999 570.975, 718.500 571.019 C 651.073 571.056, 619.863 579.241, 593.954 603.683 C 586.194 611.003, 582.620 617.396, 581.151 626.586 C 578.119 645.555, 589.106 661.677, 608 665.982 C 614.654 667.498, 624.978 672.213, 627.328 674.810 C 628.269 675.850, 630.159 681.115, 631.528 686.510 C 637.099 708.473, 637.066 784.420, 631.483 789.829 C 630.318 790.957, 613 771.960, 604.081 759.771 C 577.165 722.987, 561.024 690.484, 541.125 633 C 537.223 621.725, 532.574 609.575, 530.795 606 C 523.320 590.975, 502.942 576.640, 483.071 572.428 C 477.782 571.306, 462.845 571.056, 406.500 571.144 C 368 571.204, 333.750 571.612, 330.388 572.051 M 359 635.877 C 359 639.687, 401.577 727.429, 419.959 761.502 C 481.074 874.784, 534.051 945.750, 590.499 989.952 C 623.051 1015.443, 660.231 1033.569, 696 1041.387 C 715.725 1045.698, 731.615 1046.997, 764.620 1046.999 L 794.740 1047 795.255 1030.750 C 795.687 1017.092, 796.188 1013.097, 798.394 1005.703 C 805.879 980.615, 821.337 962.856, 841.810 955.826 C 850.479 952.849, 868.111 952.568, 877.835 955.253 C 897.920 960.799, 915.551 972.103, 954.500 1004.407 C 989.443 1033.388, 997.381 1038.673, 1013.500 1043.680 L 1022.500 1046.476 1093 1046.787 C 1144.663 1047.015, 1164.629 1046.785, 1167.724 1045.926 L 1171.948 1044.755 1168.735 1040.127 C 1163.087 1031.994, 1113.401 983.186, 1085.927 958.783 C 1049.058 926.035, 1040.803 916.658, 1034.110 899.926 C 1024.499 875.896, 1028.705 854.038, 1048.144 827 C 1051.505 822.325, 1066.481 803.200, 1081.424 784.500 C 1115.800 741.482, 1121.597 733.814, 1133.211 716 C 1149.253 691.394, 1161.537 667.928, 1167.760 650 C 1172.513 636.309, 1172.510 636.353, 1168.738 635.589 C 1166.957 635.229, 1133.907 635.245, 1095.292 635.627 L 1025.085 636.320 1021.512 647.910 C 1016.146 665.316, 1006.510 691.769, 999.807 707.500 C 976.443 762.323, 937.743 817.465, 906.304 840.727 C 894.991 849.098, 889.004 852.355, 877.979 856.134 C 869.253 859.126, 867.507 859.383, 856 859.373 C 845.646 859.364, 842.404 858.978, 837.113 857.124 C 819.746 851.039, 805.558 835.313, 799.108 815 C 793.572 797.563, 793.502 796.336, 793.501 717.303 C 793.500 661.192, 793.216 643.822, 792.285 642.888 C 787.766 638.357, 746.924 634.208, 718.734 635.415 C 706.181 635.953, 682.631 639.035, 681.359 640.307 C 681.143 640.524, 682.531 643.300, 684.444 646.476 C 690.473 656.489, 694.879 670.131, 696.886 685 C 698.730 698.663, 700.278 740.207, 699.661 759.500 C 698.079 809.047, 687.310 837.067, 665.377 848.704 C 655.682 853.849, 648.903 855.389, 636 855.381 C 612.246 855.366, 596.731 847.805, 575.416 825.855 C 563.943 814.039, 556.951 805.170, 544.329 786.417 C 516.406 744.935, 499.413 710.013, 482.044 658.418 C 475.402 638.687, 474.891 637.574, 471.910 636.320 C 469.438 635.281, 457.095 635, 413.885 635 C 383.071 635, 359 635.385, 359 635.877" stroke="none" fill="#ac5494" fill-rule="evenodd"/></svg>