<svg width="24" height="24" viewBox="0 0 24 24" fill="none" xmlns="http://www.w3.org/2000/svg">
<path fill-rule="evenodd" clip-rule="evenodd" d="M0 24L1.72334 17.6031C0.333508 15.1112 -0.108053 12.2033 0.479677 9.41309C1.06741 6.62288 2.64501 4.13748 4.92298 2.41298C7.20096 0.68848 10.0265 -0.159455 12.8811 0.0247736C15.7358 0.209002 18.428 1.41304 20.4638 3.41594C22.4996 5.41883 23.7424 8.08625 23.9642 10.9287C24.186 13.7712 23.3718 16.598 21.6712 18.8904C19.9705 21.1829 17.4974 22.7873 14.7056 23.4091C11.9139 24.0309 8.99076 23.6285 6.47269 22.2757L0 24ZM7.18509 20.1186L6.78479 19.8819L3.1685 20.8421L4.13194 17.2717L3.8809 16.8593C2.96092 15.3662 2.47473 13.648 2.47645 11.8959C2.4733 9.78279 3.1716 7.728 4.46252 6.05173C5.75344 4.37546 7.56447 3.17188 9.61339 2.62854C11.6623 2.0852 13.834 2.23262 15.7901 3.04784C17.7462 3.86306 19.3767 5.30028 20.4277 7.13553C21.4786 8.97078 21.8909 11.101 21.6003 13.1941C21.3097 15.2873 20.3325 17.2258 18.821 18.7077C17.3095 20.1896 15.3486 21.1315 13.2439 21.3867C11.1393 21.6419 9.00898 21.196 7.18509 20.1186ZM16.5004 13.5384C16.2658 13.3498 15.991 13.217 15.6971 13.1502C15.4031 13.0834 15.0978 13.0844 14.8042 13.153C14.5015 13.2784 14.2723 13.6427 14.0661 13.9704C13.972 14.1201 13.8826 14.2621 13.7933 14.3702C13.7332 14.4529 13.6449 14.5108 13.545 14.5332C13.4451 14.5557 13.3403 14.541 13.2505 14.4919C11.636 13.8616 10.2826 12.7059 9.41033 11.2123C9.33593 11.1191 9.30071 11.0008 9.3121 10.8822C9.32349 10.7636 9.3806 10.6541 9.47139 10.5767C9.78922 10.2631 10.0226 9.87469 10.1499 9.4474C10.1781 8.97609 10.0698 8.50663 9.83777 8.09499C9.65839 7.51788 9.31702 7.00401 8.85398 6.61409C8.61515 6.50704 8.35035 6.47115 8.09151 6.51074C7.83267 6.55034 7.59086 6.66373 7.39525 6.83724C7.05565 7.12926 6.78609 7.49347 6.60644 7.90307C6.42679 8.31267 6.34161 8.75721 6.35717 9.20396C6.35822 9.45484 6.39012 9.70465 6.45216 9.94779C6.60971 10.532 6.85199 11.0901 7.17135 11.6045C7.40176 11.9985 7.65315 12.38 7.92446 12.7473C8.80617 13.9536 9.91451 14.9779 11.1879 15.7632C11.827 16.1622 12.5099 16.4867 13.2234 16.7301C13.9645 17.065 14.7828 17.1935 15.5913 17.1021C16.0519 17.0326 16.4884 16.8513 16.8623 16.5742C17.2361 16.2971 17.5359 15.9327 17.7353 15.513C17.8524 15.2594 17.8879 14.976 17.837 14.7015C17.733 14.2234 17.1711 13.9121 16.7216 13.6632C16.6435 13.6199 16.5688 13.5785 16.5004 13.5384Z" fill="#96588D"/>
</svg>
