<svg width="48" height="48" viewBox="0 0 48 48" fill="none" xmlns="http://www.w3.org/2000/svg">
<g clip-path="url(#clip0_808_217)">
<path fill-rule="evenodd" clip-rule="evenodd" d="M18.2221 33.7423L17.7417 33.4583L13.4022 34.6105L14.5583 30.3261L14.2571 29.8311C13.1531 28.0395 12.5697 25.9776 12.5717 23.8751C12.568 21.3394 13.4059 18.8736 14.955 16.8621C16.5041 14.8506 18.6774 13.4063 21.1361 12.7542C23.5948 12.1022 26.2008 12.2791 28.5481 13.2574C30.8954 14.2357 32.8521 15.9603 34.1132 18.1626C35.3743 20.3649 35.8691 22.9212 35.5203 25.4329C35.1716 27.9447 33.999 30.271 32.1852 32.0492C30.3714 33.8275 28.0184 34.9578 25.4927 35.264C22.9671 35.5703 20.4108 35.0352 18.2221 33.7423ZM28.4365 25.3803C28.7892 25.4604 29.1189 25.6198 29.4005 25.8461C29.4825 25.8942 29.5722 25.9439 29.666 25.9958C30.2053 26.2946 30.8796 26.6681 31.0044 27.2418C31.0655 27.5712 31.0229 27.9113 30.8823 28.2156C30.6431 28.7192 30.2833 29.1565 29.8347 29.489C29.3861 29.8216 28.8623 30.0391 28.3095 30.1225C27.3393 30.2322 26.3574 30.078 25.4681 29.6762C24.6119 29.384 23.7924 28.9947 23.0255 28.5158C21.4974 27.5734 20.1674 26.3444 19.1094 24.8967C18.7838 24.456 18.4821 23.9982 18.2056 23.5254C17.8224 22.9081 17.5317 22.2384 17.3426 21.5373C17.2681 21.2456 17.2299 20.9458 17.2286 20.6448C17.2099 20.1087 17.3121 19.5752 17.5277 19.0837C17.7433 18.5922 18.0668 18.1551 18.4743 17.8047C18.709 17.5965 18.9992 17.4604 19.3098 17.4129C19.6204 17.3654 19.9382 17.4084 20.2248 17.5369C20.7804 18.0048 21.1901 18.6215 21.4053 19.314C21.6838 19.8079 21.8138 20.3713 21.7798 20.9369C21.6271 21.4496 21.3471 21.9157 20.9657 22.292C20.8567 22.3849 20.7882 22.5164 20.7745 22.6586C20.7609 22.8009 20.8031 22.9429 20.8924 23.0548C21.9392 24.847 23.5632 26.234 25.5006 26.9903C25.6084 27.0491 25.7341 27.0668 25.854 27.0399C25.9739 27.013 26.0799 26.9434 26.152 26.8442C26.2592 26.7145 26.3664 26.5441 26.4793 26.3645C26.7267 25.9713 27.0018 25.534 27.3651 25.3836C27.7173 25.3013 28.0837 25.3001 28.4365 25.3803Z" fill="#96588D"/>
<path fill-rule="evenodd" clip-rule="evenodd" d="M24 0C10.7452 0 0 10.7452 0 24C0 37.2548 10.7452 48 24 48C37.2548 48 48 37.2548 48 24C48 10.7452 37.2548 0 24 0ZM11.668 30.7237L9.6 38.4L17.3672 36.3308C20.3889 37.9542 23.8966 38.4371 27.2467 37.6909C30.5968 36.9447 33.5646 35.0195 35.6054 32.2685C37.6462 29.5176 38.6232 26.1254 38.357 22.7144C38.0909 19.3035 36.5995 16.1026 34.1566 13.6991C31.7136 11.2956 28.4829 9.8508 25.0574 9.62973C21.6318 9.40865 18.2412 10.4262 15.5076 12.4956C12.774 14.565 10.8809 17.5475 10.1756 20.8957C9.47034 24.244 10.0002 27.7334 11.668 30.7237Z" fill="#96588D"/>
</g>
<defs>
<clipPath id="clip0_808_217">
<rect width="48" height="48" fill="white"/>
</clipPath>
</defs>
</svg>
